# xmcd
#
# Track frame offsets:
#	150
#	14943
#	28941
#	42363
#	57918
#	74687
#	93956
#	109649
#	126366
#	141147
#	152207
#	165487
#	183697
#	200170
#	217676
#	231483
#	251874
#	262344
#	274937
#	287007
#
# Disc length: 4009 seconds
#
# Revision: 1
# Processed by: cddbd v1.5.2PL0 Copyright (c) Steve Scherf et al.
# Submitted via: audiograbber 1.83.01
#
DISCID=460fa714
DTITLE=Diversen - Holland Party 6
DYEAR=1900
DGENRE=
TTITLE0=Def Rhymz feat. DJ Kicken - Slippers
TTITLE1=Ed Nieman - Jij bent mijn senorita
TTITLE2=Vinzzent - Cecilia
TTITLE3=Thomas Berge - Jij bent mijn leven
TTITLE4=Marianne Weber - 'n Meisje huilt
TTITLE5=Stef Ekkel - De tijd stond even stil
TTITLE6=Corry Koning - Leven en laten leven
TTITLE7=Benny Neyman - Waarom fluister ik je naam nog
TTITLE8=Angesz - Tequila boom boom
TTITLE9=Willeke Alberti - Spiegelbeeld
TTITLE10=Cats - Be my day
TTITLE11=Ruth Jacott - Vrij met mij
TTITLE12=Armand - Ben ik te min
TTITLE13=Guus Meeuwis - Ik ben blij dat ik je niet vergeten ben
TTITLE14=Ferry de Lits - Een nacht met jou
TTITLE15=Bonnie St.Claire - Sla je arm om me heen
TTITLE16=Highway - Kiddy kiddy kiss me
TTITLE17=Holland Duo - Het gevoel van ware liefde
TTITLE18=Lucien Martin - Jou aan m'n zij
TTITLE19=Dirk Meeldijk - Feest op het plein
EXTD=
EXTT0=
EXTT1=
EXTT2=
EXTT3=
EXTT4=
EXTT5=
EXTT6=
EXTT7=
EXTT8=
EXTT9=
EXTT10=
EXTT11=
EXTT12=
EXTT13=
EXTT14=
EXTT15=
EXTT16=
EXTT17=
EXTT18=
EXTT19=
PLAYORDER=
